Coordinates
version=1
nRows=19
nColumns=24
inDegrees=yes

Units are S.I. units (second, meters, Newtons, ...)
Angles are in degrees.

endheader
time	pelvis_tilt	pelvis_list	pelvis_rotation	pelvis_tx	pelvis_ty	pelvis_tz	hip_flexion_r	hip_adduction_r	hip_rotation_r	knee_angle_r	ankle_angle_r	subtalar_angle_r	mtp_angle_r	hip_flexion_l	hip_adduction_l	hip_rotation_l	knee_angle_l	ankle_angle_l	subtalar_angle_l	mtp_angle_l	lumbar_extension	lumbar_bending	lumbar_rotation
      3.48000000	      6.73031988	     -0.04166079	     -3.55480148	      0.95682379	      1.00894503	      0.00739948	    -12.71568392	     -4.66804264	     -4.78254240	    -38.47892133	      0.83262935	      9.36186568	     37.70437121	     12.42613750	      1.41167116	     -7.64441913	    -13.39515300	     -3.55340382	      2.87829236	     11.78005724	    -18.76642288	      0.63449709	      3.50051440
      3.48500000	      6.59415594	      0.06934785	     -3.57585180	      0.96203235	      1.00957793	      0.00666605	    -11.62702568	     -4.96851712	     -4.71462991	    -40.22981152	     -0.13042774	      9.01247598	     37.35641463	     12.26928729	      1.60096887	     -7.56740255	    -13.43038451	     -3.29036852	      2.78637952	     11.64701986	    -18.65923991	      0.53514851	      3.51843803
      3.49000000	      6.43589192	      0.15978372	     -3.61700873	      0.96717413	      1.01013532	      0.00598960	    -10.49496179	     -5.22828241	     -4.57830651	    -41.96492595	     -1.01973144	      8.55390181	     36.78402143	     12.13205688	      1.76301886	     -7.50479557	    -13.45368565	     -2.96817148	      2.68994811	     11.41283792	    -18.53131277	      0.45284477	      3.54434393
      3.49500000	      6.30503495	      0.27259529	     -3.59691087	      0.97229436	      1.01067651	      0.00524447	     -9.39932260	     -5.50544785	     -4.53000130	    -43.69305335	     -1.56520951	      8.26137836	     33.33939570	     11.97437252	      1.95938649	     -7.40443331	    -13.48700295	     -2.52503049	      2.72757867	      9.81816044	    -18.43060068	      0.36209105	      3.48923341
      3.50000000	      6.17416914	      0.33696952	     -3.66535831	      0.97731076	      1.01121353	      0.00471157	     -8.27964896	     -5.70620744	     -4.32295670	    -45.34939400	     -2.34900098	      7.62590875	     32.96362867	     11.81260121	      2.07195360	     -7.45362292	    -13.52275464	     -2.19970625	      2.77302719	      9.77371015	    -18.33770107	      0.29123919	      3.53103186
      3.50500000	      5.97759121	      0.41476439	     -3.65658533	      0.98226298	      1.01161529	      0.00404927	     -7.09032902	     -5.90945068	     -4.21071343	    -47.00549666	     -2.76133017	      7.16813989	     29.95379588	     11.73966141	      2.21895913	     -7.36138759	    -13.56700899	     -1.82530717	      2.74738604	      8.77624705	    -18.17333980	      0.23550436	      3.48366099
      3.51000000	      5.79300819	      0.46614207	     -3.70808798	      0.98721037	      1.01201839	      0.00357938	     -5.91440315	     -6.05932731	     -4.00444714	    -48.57468559	     -3.30271886	      6.44508698	     29.33278693	     11.64762919	      2.30363142	     -7.43292121	    -13.61458209	     -1.45475016	      2.92320273	      8.66132343	    -18.01869990	      0.18264769	      3.47708695
      3.51500000	      5.65298187	      0.47533879	     -3.78280332	      0.99206743	      1.01249846	      0.00318195	     -4.78835030	     -6.14263249	     -3.75155573	    -50.06962946	     -3.79695742	      5.63261038	     28.75736635	     11.51839127	      2.34200896	     -7.52644723	    -13.68589435	     -1.11444690	      2.96025058	      8.54704933	    -17.92277236	      0.16381947	      3.51321303
      3.52000000	      5.49914233	      0.53965307	     -3.80662865	      0.99694872	      1.01289454	      0.00272511	     -3.65855531	     -6.28800296	     -3.58796706	    -51.55834494	     -3.75254623	      5.08876991	     25.04915119	     11.39957493	      2.44600698	     -7.56488680	    -13.74126252	     -0.63755408	      3.13341278	      7.33327106	    -17.80294573	      0.09948438	      3.46529284
      3.52500000	      5.38043117	      0.54863468	     -3.87675015	      1.00178957	      1.01336998	      0.00241080	     -2.57840944	     -6.34511868	     -3.34723301	    -52.91815570	     -4.04328445	      4.25616866	     24.77918720	     11.24532741	      2.47346380	     -7.68266639	    -13.80851089	     -0.29278864	      3.28325914	      7.33311881	    -17.72629037	      0.07529870	      3.46255857
      3.53000000	      5.19506642	      0.59055213	     -3.89481269	      1.00658060	      1.01370071	      0.00199038	     -1.42838882	     -6.43355649	     -3.17305818	    -54.26387819	     -3.96079923	      3.58601939	     22.81240511	     11.17052488	      2.55297117	     -7.66719133	    -13.86941927	      0.08541855	      3.32102594	      6.73647481	    -17.57314073	      0.03857173	      3.38924455
      3.53500000	      5.11927865	      0.58824099	     -3.98799119	      1.01145792	      1.01425308	      0.00179616	     -0.42767688	     -6.44991285	     -2.91131673	    -55.46350549	     -4.03108102	      2.74673195	     22.56840524	     10.94351989	      2.55429226	     -7.84569345	    -13.90304789	      0.46311923	      3.60490198	      6.75084482	    -17.53532606	      0.01294895	      3.40182065
      3.54000000	      4.99998815	      0.59972157	     -4.05730736	      1.01626809	      1.01469396	      0.00155816	      0.61981273	     -6.47301886	     -2.67792649	    -56.62495199	     -3.93219445	      1.99065132	     22.16464734	     10.78997737	      2.57649301	     -7.96008340	    -13.97046045	      0.83333592	      3.76990581	      6.68327180	    -17.44904275	     -0.01555285	      3.37133605
      3.54500000	      4.87679650	      0.63612147	     -4.07880077	      1.02109910	      1.01511988	      0.00124637	      1.64941052	     -6.52400022	     -2.50767884	    -57.73059429	     -3.54271051	      1.42036557	     19.91850892	     10.62072190	      2.64472534	     -7.95639067	    -13.98881484	      1.22047657	      3.85655779	      5.94551878	    -17.35286318	     -0.05744592	      3.26870623
      3.55000000	      4.86602123	      0.64284045	     -4.17979401	      1.02603601	      1.01575536	      0.00112024	      2.52811802	     -6.52704304	     -2.25722140	    -58.69585690	     -3.34271253	      0.71947897	     19.77731518	     10.29175579	      2.65804731	     -8.13430999	    -13.96779661	      1.57792840	      4.14017014	      5.98085703	    -17.37398838	     -0.09987351	      3.26212338
      3.55500000	      4.82448029	      0.66001630	     -4.25402703	      1.03090909	      1.01631707	      0.00094356	      3.43363232	     -6.53483865	     -2.03584593	    -59.60559093	     -3.04593243	      0.09904440	     19.54910611	     10.00046825	      2.69561016	     -8.21026838	    -13.93475902	      1.89510464	      4.28354891	      5.96561006	    -17.36211117	     -0.14238025	      3.21737041
      3.56000000	      4.79742180	      0.67966023	     -4.33266595	      1.03584047	      1.01691282	      0.00076808	      4.30259988	     -6.53750156	     -1.80963579	    -60.43448906	     -2.69115197	     -0.44425975	     19.26764242	      9.66995489	      2.74020496	     -8.28966894	    -13.86284683	      2.19842694	      4.42624418	      5.93294382	    -17.35849344	     -0.18570841	      3.17873215
      3.56500000	      4.77440982	      0.69622883	     -4.39579190	      1.04077698	      1.01750596	      0.00059929	      5.14642806	     -6.52932541	     -1.60264054	    -61.18307064	     -2.28246256	     -0.91075687	     18.85058098	      9.32833391	      2.78334744	     -8.35992880	    -13.77538905	      2.50207367	      4.57628816	      5.86352114	    -17.35585498	     -0.22314983	      3.10309451
      3.57000000	      4.84951982	      0.74813372	     -4.43754134	      1.04581417	      1.01823758	      0.00038196	      5.84967589	     -6.57809529	     -1.44499411	    -61.83466573	     -1.88833547	     -1.33859870	     18.72688273	      8.84632580	      2.88599959	     -8.37159893	    -13.61818015	      2.73235259	      4.68532657	      5.86414133	    -17.44763126	     -0.29847582	      2.99530213
